<svg width="44" height="46" viewBox="0 0 44 46" fill="none" xmlns="http://www.w3.org/2000/svg">
<path d="M26.714 1.64285H17.2854C16.4519 1.64285 15.6525 1.98903 15.0631 2.60522C14.4737 3.22141 14.1426 4.05714 14.1426 4.92857V6.57142C14.1426 7.44285 14.4737 8.27858 15.0631 8.89478C15.6525 9.51097 16.4519 9.85714 17.2854 9.85714H26.714C27.5475 9.85714 28.3469 9.51097 28.9363 8.89478C29.5257 8.27858 29.8569 7.44285 29.8569 6.57142V4.92857C29.8569 4.05714 29.5257 3.22141 28.9363 2.60522C28.3469 1.98903 27.5475 1.64285 26.714 1.64285Z" stroke="#51B19D" stroke-width="1.71429" stroke-linecap="round" stroke-linejoin="round"/>
<path d="M30.6429 4.92856H35.3571C36.1907 4.92856 36.9901 5.27473 37.5795 5.89092C38.1689 6.50711 38.5 7.34285 38.5 8.21427V41.0714C38.5 41.9428 38.1689 42.7786 37.5795 43.3948C36.9901 44.011 36.1907 44.3571 35.3571 44.3571H8.64286C7.80932 44.3571 7.00992 44.011 6.42052 43.3948C5.83112 42.7786 5.5 41.9428 5.5 41.0714V8.21427C5.5 7.34285 5.83112 6.50711 6.42052 5.89092C7.00992 5.27473 7.80932 4.92856 8.64286 4.92856H13.3571" stroke="#51B19D" stroke-width="1.71429" stroke-linecap="round" stroke-linejoin="round"/>
<path d="M15.7139 29.5714L20.4282 32.8572L29.8567 19.7143" stroke="#51B19D" stroke-width="1.71429" stroke-linecap="round" stroke-linejoin="round"/>
</svg>
