<svg width="53" height="46" viewBox="0 0 53 46" fill="none" xmlns="http://www.w3.org/2000/svg">
<g clip-path="url(#clip0_66_16)">
<path fill-rule="evenodd" clip-rule="evenodd" d="M14.5527 2.47415C14.4823 1.86587 14.1539 1.30204 13.6313 0.892173C13.1087 0.482306 12.4292 0.255669 11.7248 0.256288H2.91546C2.16243 0.256288 1.44025 0.515917 0.907779 0.97806C0.37531 1.4402 0.0761719 2.067 0.0761719 2.72057C0.0761719 3.37414 0.37531 4.00094 0.907779 4.46309C1.44025 4.92523 2.16243 5.18486 2.91546 5.18486H9.1581L10.1121 13.4189C10.1121 13.4747 10.1121 13.5339 10.1197 13.5897L11.9444 29.3447C12.1197 30.4806 12.7669 31.5219 13.7645 32.2728C14.7621 33.0236 16.0413 33.4324 17.3617 33.4223H39.5157C40.6876 33.4649 41.8437 33.1762 42.8103 32.5997C43.777 32.0232 44.502 31.19 44.8763 30.2253V30.2187L49.5706 17.9827C49.8382 17.2766 49.9091 16.5222 49.7775 15.7877C49.6459 15.0532 49.3155 14.3562 48.8135 13.754C48.2938 13.1207 47.6012 12.6091 46.7979 12.265C45.9945 11.921 45.1053 11.7552 44.21 11.7826H15.6279L14.5527 2.47415Z" fill="#51B19D"/>
<path fill-rule="evenodd" clip-rule="evenodd" d="M23.7707 42.1294C23.7707 41.6211 23.6554 41.1178 23.4312 40.6482C23.2071 40.1786 22.8786 39.7519 22.4645 39.3925C22.0504 39.0331 21.5588 38.748 21.0177 38.5535C20.4767 38.359 19.8968 38.2589 19.3111 38.2589C18.7255 38.2589 18.1456 38.359 17.6045 38.5535C17.0635 38.748 16.5718 39.0331 16.1577 39.3925C15.7436 39.7519 15.4151 40.1786 15.191 40.6482C14.9669 41.1178 14.8516 41.6211 14.8516 42.1294C14.8516 43.156 15.3214 44.1405 16.1577 44.8663C16.9941 45.5922 18.1284 46 19.3111 46C20.4939 46 21.6282 45.5922 22.4645 44.8663C23.3009 44.1405 23.7707 43.156 23.7707 42.1294ZM43.252 42.1294C43.252 41.1029 42.7821 40.1184 41.9458 39.3925C41.1095 38.6666 39.9752 38.2589 38.7924 38.2589C37.6097 38.2589 36.4754 38.6666 35.639 39.3925C34.8027 40.1184 34.3328 41.1029 34.3328 42.1294C34.3328 43.156 34.8027 44.1405 35.639 44.8663C36.4754 45.5922 37.6097 46 38.7924 46C39.9752 46 41.1095 45.5922 41.9458 44.8663C42.7821 44.1405 43.252 43.156 43.252 42.1294Z" fill="#51B19D"/>
</g>
<defs>
<clipPath id="clip0_66_16">
<rect width="53" height="46" fill="white"/>
</clipPath>
</defs>
</svg>
